PathFileType	4	(X/Y/Z)	C:\Users\Basilio\Documents\Thesis Gigler\squatting_fais\c3dfiles\044\SLS_front_pre4\markers_experimental.trc
DataRate	CameraRate	NumFrames	NumMarkers	Units	OrigDataRate	OrigDataStartFrame	OrigNumFrames
200.000000	200.000000	4	60	mm	200.000000	161	1293
Frame#	Time	FHD			LBHD			RBHD			C7			T10			LSHO			LUUPA			LMUPA			LDUPA			LLEP			LMEP			LUL			LRFIN			RSHO			RUPA1			RMUPA			RDUPA			RLEP			RMEP			RUL			LASI			RASI			USACR			LSACR			RSACR			LTHI1			LTHI2			LTHI3			LTHI4			LLFC			LMFC			LTIB1			LTIB2			LTIB3			LTIB4			LLMAL			LMMAL			LHEE			LMT1			LMT2			LMT5			RTHI			RTHI2			RTHI3			RTHI4			RLFC			RMFC			RTIB1			RTIB2			RTIB3			RTIB4			RLMAL			RHEE			RMT1			RMT2			RMT5			RUFIN			CLAV			LRAD			RMMAL			
		X1	Y1	Z1	X2	Y2	Z2	X3	Y3	Z3	X4	Y4	Z4	X5	Y5	Z5	X6	Y6	Z6	X7	Y7	Z7	X8	Y8	Z8	X9	Y9	Z9	X10	Y10	Z10	X11	Y11	Z11	X12	Y12	Z12	X13	Y13	Z13	X14	Y14	Z14	X15	Y15	Z15	X16	Y16	Z16	X17	Y17	Z17	X18	Y18	Z18	X19	Y19	Z19	X20	Y20	Z20	X21	Y21	Z21	X22	Y22	Z22	X23	Y23	Z23	X24	Y24	Z24	X25	Y25	Z25	X26	Y26	Z26	X27	Y27	Z27	X28	Y28	Z28	X29	Y29	Z29	X30	Y30	Z30	X31	Y31	Z31	X32	Y32	Z32	X33	Y33	Z33	X34	Y34	Z34	X35	Y35	Z35	X36	Y36	Z36	X37	Y37	Z37	X38	Y38	Z38	X39	Y39	Z39	X40	Y40	Z40	X41	Y41	Z41	X42	Y42	Z42	X43	Y43	Z43	X44	Y44	Z44	X45	Y45	Z45	X46	Y46	Z46	X47	Y47	Z47	X48	Y48	Z48	X49	Y49	Z49	X50	Y50	Z50	X51	Y51	Z51	X52	Y52	Z52	X53	Y53	Z53	X54	Y54	Z54	X55	Y55	Z55	X56	Y56	Z56	X57	Y57	Z57	X58	Y58	Z58	X59	Y59	Z59	X60	Y60	Z60	

162	0.805	-240.4220886230469	1809.04931640625	-924.873229980469	-373.0574951171876	1765.94677734375	-997.9983520507815	-410.0680541992189	1746.434936523438	-836.620544433594	-417.3361816406251	1570.833984375	-925.6134033203127	-403.5910949707032	1267.604248046875	-914.1597900390627	-321.5787658691407	1597.30419921875	-1071.381103515625	-152.0313720703125	1575.861938476563	-1161.594482421875	-127.1111755371094	1586.198974609375	-1118.208862304688	-83.13146972656251	1571.5126953125	-1158.002075195313	-25.9275016784668	1570.132690429688	-1145.50439453125	-36.16680908203126	1493.456420898438	-1133.027465820313	224.6859893798829	1580.658081054688	-1022.301147460938	241.1673126220704	1595.1025390625	-921.0963134765627	-329.9550170898438	1585.976806640625	-767.4454956054689	-170.968490600586	1563.137329101563	-669.5918579101564	-142.6098327636719	1579.321655273438	-710.0678710937501	-101.0423278808594	1563.160400390625	-668.6193847656251	-40.61188125610352	1567.0126953125	-678.9103393554689	-43.08646392822266	1486.767333984375	-692.3527221679689	218.2828369140626	1582.148559570313	-790.853698730469	-224.5582275390626	1079.615478515625	-1015.876647949219	-217.4765014648438	1064.560913085938	-798.831237792969	-391.2637023925782	1121.13427734375	-899.7211914062502	-396.8656005859376	1088.176635742188	-925.9899902343752	-394.2569580078126	1091.487915039063	-868.5759887695315	-320.0638122558594	839.9294433593752	-1091.079345703125	-286.9866943359376	762.1176147460939	-1089.634155273438	-239.4180145263672	764.4432373046876	-1082.14697265625	-315.2583312988282	709.5708007812501	-1076.645629882813	-298.3289489746094	550.0095825195314	-1062.603881835938	-292.4715270996094	543.4251708984376	-940.127136230469	-279.5364990234376	372.8208923339844	-993.9100341796877	-302.8655700683594	328.4205932617188	-1067.171875	-274.8627014160157	326.2061767578126	-1029.822998046875	-291.9725341796876	247.3576812744141	-1002.669982910156	-342.9618530273438	133.1065826416016	-1053.739990234375	-324.6688537597657	137.2715454101563	-969.2330322265627	-408.2572326660157	111.3703002929688	-1006.434326171875	-202.4515838623047	62.3492774963379	-984.1806640625002	-200.9654235839844	65.24526977539064	-1030.858154296875	-237.7255554199219	52.87546157836915	-1077.94921875	-315.0526733398438	796.5588989257815	-714.6394042968751	-274.1037292480469	742.1906127929689	-710.4442138671876	-241.7796936035157	744.3949584960939	-716.3535156250001	-299.0964050292969	661.9947509765626	-724.8792114257814	-300.9991455078126	547.3717041015626	-727.0911865234376	-310.4737548828126	535.6200561523439	-850.7932739257815	-260.7889099121094	417.0448303222657	-749.5052490234376	-329.8627624511719	350.4766235351563	-695.4327392578126	-288.9630432128907	341.3721008300782	-714.5352172851564	-281.1432495117188	289.1600646972657	-738.1711425781251	-347.5737609863282	138.2609405517578	-712.3802490234376	-409.4217529296876	111.1334838867188	-753.1547241210939	-206.5388793945313	65.47705841064455	-787.0732421875002	-198.4627380371094	60.2593460083008	-750.9177856445314	-235.3961944580079	46.89963912963868	-696.2345581054689	236.4627990722657	1566.3046875	-903.2088623046877	-273.4051818847657	1547.791137695313	-926.7808227539065	213.4431762695313	1530.409545898438	-972.4226684570315	nan	nan	nan	
163	0.8100000000000001	-240.0662078857422	1809.224243164063	-925.9190063476565	-372.7966308593751	1766.26318359375	-998.8841552734377	-410.0809020996095	1746.506225585938	-837.5430908203127	-417.6362915039064	1571.56787109375	-926.8042602539065	-403.8126525878907	1267.626220703125	-914.8484497070315	-321.3063354492188	1597.361206054688	-1072.163452148438	-152.099349975586	1575.880615234375	-1162.350341796875	-127.0488052368164	1586.130737304688	-1119.049194335938	-83.0509719848633	1571.37451171875	-1158.836059570313	-25.94218635559083	1569.926635742188	-1146.219970703125	-35.87546539306641	1493.607299804688	-1134.225341796875	224.6580810546876	1580.471923828125	-1023.136657714844	241.1796112060547	1594.78515625	-921.8057861328127	-329.8047180175782	1585.993896484375	-768.2520141601565	-170.9247741699219	1563.15625	-670.2212524414064	-142.5092010498047	1579.328735351563	-710.7835083007814	-100.9756164550782	1563.0498046875	-669.1952514648439	-40.49286270141602	1566.966674804688	-679.7422485351564	-42.99362564086915	1486.746459960938	-692.8765258789064	218.2097320556641	1581.982177734375	-791.581481933594	-224.6541290283204	1079.560546875	-1016.572814941406	-217.6017608642579	1064.568969726563	-799.3987426757815	-391.5563964843751	1121.152587890625	-900.3760375976565	-396.8731384277345	1088.239379882813	-926.6240844726565	-394.1285705566407	1091.43310546875	-869.2088012695315	-320.2570190429688	839.8826904296877	-1091.554443359375	-287.0874023437501	761.9729614257814	-1089.814331054688	-239.6014404296876	764.4739990234376	-1082.326904296875	-315.2269592285157	709.5183105468751	-1077.0361328125	-298.8457336425782	550.3259887695314	-1062.862548828125	-292.6697082519532	543.6126098632814	-940.4370727539065	-279.5847778320313	372.8626403808594	-994.1255493164065	-302.7485046386719	328.4024658203126	-1067.351684570313	-274.8255310058594	326.1553955078126	-1029.90185546875	-292.1836547851563	247.5511779785157	-1002.847595214844	-342.9679870605469	133.1139068603516	-1053.75537109375	-324.7415466308594	137.2992858886719	-969.2315063476565	-408.4479980468751	111.9396896362305	-1006.703491210938	-202.4919891357422	62.39602279663087	-984.2669677734377	-200.9072570800782	65.26394653320314	-1030.879760742188	-237.7878112792969	53.0102996826172	-1077.844848632813	-315.0908508300782	796.4705810546877	-715.1312866210939	-274.1789855957032	742.1832885742189	-710.7118530273439	-241.8191223144532	744.4467163085939	-717.0006103515626	-299.3398742675782	662.4228515625001	-725.6637573242189	-300.8281250000001	547.4523925781251	-727.4793090820314	-310.2780151367188	535.5694580078126	-851.0571899414065	-260.7950744628907	417.132049560547	-749.6873779296876	-329.7553405761719	350.4827880859376	-695.5393676757814	-288.9473876953126	341.4425354003907	-714.7075805664064	-281.0606689453126	289.2422790527344	-738.3012695312501	-347.5589904785157	138.3102416992188	-712.3922119140626	-409.4439086914064	111.162841796875	-753.1593017578126	-206.5418548583985	65.44652557373048	-787.0480957031252	-198.453842163086	60.22485733032228	-750.9227294921876	-235.4044189453126	46.84646606445313	-696.2175292968751	236.6159667968751	1566.521728515625	-903.8914794921877	-273.7276916503907	1547.731201171875	-927.4468383789065	213.6283874511719	1530.314819335938	-973.0635375976565	nan	nan	nan	
164	0.8150000000000001	-239.9139099121094	1808.925903320313	-926.7265625000002	-372.8169250488282	1765.9541015625	-999.7514648437502	-409.7097778320314	1746.72802734375	-838.3741455078127	-417.5889587402345	1571.576782226563	-927.5259399414065	-403.9065551757814	1267.718139648438	-915.5972900390627	-321.4837036132813	1597.211303710938	-1072.919067382813	-152.0167694091797	1575.561401367188	-1163.139404296875	-126.8508224487305	1586.07568359375	-1119.865234375	-82.9779510498047	1571.213256835938	-1159.650634765625	-25.91814613342286	1569.725952148438	-1146.982666015625	-36.01864242553712	1493.512573242188	-1134.838500976563	224.7311096191407	1579.874145507813	-1023.706481933594	241.2545776367188	1594.611083984375	-922.3447875976565	-329.8707275390626	1586.060180664063	-768.8554687500002	-170.9695892333985	1563.257202148438	-671.0363769531251	-142.5741729736328	1579.16943359375	-711.4544677734376	-101.0441970825196	1562.885620117188	-669.7724609375001	-40.44247436523438	1566.8017578125	-680.4357299804689	-43.00177383422852	1486.60546875	-693.3750000000001	218.3238067626954	1581.78759765625	-792.2930908203127	-226.5959472656251	1078.952514648438	-1016.204345703125	-217.878402709961	1064.664672851563	-799.9934692382815	-391.6399230957032	1121.093994140625	-901.0645751953127	-396.9338378906251	1088.174926757813	-927.2822265625002	-394.1298217773439	1091.502807617188	-869.977478027344	-320.1783142089844	839.8023681640627	-1092.14111328125	-287.1072692871094	761.9860839843751	-1090.4453125	-239.5050964355469	764.2641601562501	-1082.930419921875	-315.2468566894532	709.4275512695314	-1077.491088867188	-298.1937866210938	549.9109497070314	-1063.2109375	-292.8554077148438	543.8875732421876	-940.889587402344	-279.6356201171876	372.8451232910157	-994.3288574218752	-303.5622558593751	327.5549316406251	-1067.575317382813	-274.8299865722657	326.1360473632813	-1030.002075195313	-292.1901245117188	247.517562866211	-1002.948669433594	-342.9799499511719	133.1027069091797	-1053.798950195313	-324.7769165039063	137.3779907226563	-969.2631835937502	-408.4332275390626	111.9449234008789	-1006.727905273438	-202.437973022461	62.34617233276369	-984.1179199218752	-200.9190979003907	65.27403259277345	-1030.86962890625	-237.7812500000001	53.00865173339845	-1077.84033203125	-315.1377258300782	796.483337402344	-715.7160034179689	-274.3627929687501	742.1200561523439	-711.0709838867189	-242.0086212158204	744.4436645507814	-717.4074707031251	-299.5179748535157	662.6214599609376	-726.1938476562501	-300.8236389160157	547.4625244140626	-727.8383789062501	-310.1612548828126	535.4732666015626	-851.4163208007815	-260.6850280761719	417.1631469726564	-749.9669189453126	-329.6594848632813	350.4906921386719	-695.8150024414064	-288.9238281250001	341.4876708984376	-714.8999633789064	-281.0013122558594	289.2479248046876	-738.4202270507814	-347.5535583496094	138.3656005859375	-712.4159545898439	-409.4269409179689	111.1549758911133	-753.1558837890626	-206.6016387939454	65.47079467773439	-787.0672607421877	-198.4634094238282	60.25099563598634	-750.9235229492189	-235.4100799560547	46.85724258422852	-696.2274169921876	236.3329010009766	1566.252685546875	-904.631774902344	-273.8157958984376	1547.68603515625	-928.2010498046877	213.5970153808594	1529.927978515625	-974.0067138671877	nan	nan	nan	
165	0.8200000000000001	-239.8770751953126	1809.066650390625	-927.5610351562502	-372.4884643554688	1766.25	-1000.629028320313	-409.4686279296876	1746.83935546875	-839.1104125976565	-417.2446899414064	1571.189331054688	-928.0808715820315	-404.0079040527345	1267.734375	-916.3464965820315	-321.8118286132813	1597.12890625	-1073.759155273438	-152.1824645996094	1575.586547851563	-1163.794677734375	-126.7889480590821	1585.949096679688	-1120.6689453125	-82.6985321044922	1570.959106445313	-1160.65625	-25.71154403686524	1569.65087890625	-1148.088500976563	-35.80694198608399	1493.215942382813	-1135.779174804688	224.9367828369141	1579.3759765625	-1024.470092773438	241.3589782714844	1594.276733398438	-923.285827636719	-330.0479736328126	1586.249267578125	-769.7504882812502	-170.9990844726563	1563.322875976563	-671.9390869140626	-142.4964752197266	1578.985229492188	-712.0284423828126	-101.0340728759766	1562.724731445313	-670.5374755859376	-40.3115577697754	1566.542236328125	-681.1311645507814	-42.96317672729493	1486.410522460938	-694.0168457031251	218.2396545410157	1581.403564453125	-793.0654907226565	-226.7271423339844	1078.953369140625	-1016.847900390625	-218.1451416015626	1064.62841796875	-800.5246582031252	-391.7752685546876	1121.0166015625	-901.7551269531252	-397.0268554687501	1088.085815429688	-928.1076660156252	-394.4043273925782	1091.422973632813	-870.5668945312502	-320.0787658691407	839.6893310546877	-1092.857543945313	-287.1191711425782	761.9546508789064	-1090.890380859375	-239.5361633300782	764.2197875976564	-1083.45166015625	-315.2855834960938	709.3660888671876	-1077.982299804688	-298.3031311035157	549.8021850585939	-1063.8095703125	-292.9663085937501	543.8600463867189	-941.0944824218752	-279.6245117187501	372.9505004882813	-994.5369873046877	-302.9084167480469	328.1605224609376	-1067.608642578125	-274.8425903320313	326.1311035156251	-1030.161010742188	-292.1027526855469	247.3219757080079	-1003.017700195313	-342.9914855957032	133.0571441650391	-1053.805419921875	-324.8314819335938	137.341796875	-969.2723388671877	-408.4726867675782	111.9590454101563	-1006.711242675781	-202.5010528564454	62.41802978515626	-984.1483154296877	-200.9441833496094	65.28145599365236	-1030.8271484375	-237.7211914062501	52.97032928466798	-1077.86669921875	-315.3009033203126	796.5435791015627	-716.2759399414064	-274.5146179199219	742.1087646484376	-711.5316162109376	-242.0613861083985	744.5838012695314	-717.6907958984376	-299.5928649902344	662.5743408203126	-726.6570434570314	-300.7112121582032	547.4921264648439	-728.2106323242189	-310.1043701171876	535.3835449218751	-851.7432861328127	-260.5530700683594	417.2662353515626	-750.1917724609376	-329.5285949707032	350.5284118652344	-695.9315185546876	-288.9167175292969	341.5043640136719	-715.0411987304689	-280.9339294433594	289.2805786132813	-738.5658569335939	-347.5203552246094	138.4283599853516	-712.4523315429689	-409.3636169433595	111.184928894043	-753.2135620117189	-206.6007995605469	65.4257278442383	-787.0652465820315	-198.3914794921876	60.18183517456056	-750.8558349609376	-235.4064636230469	46.84815216064454	-696.2199707031251	236.9178924560547	1565.818115234375	-905.399108886719	-273.0184020996094	1548.156494140625	-928.9917602539065	213.4108886718751	1529.60791015625	-974.7261352539065	nan	nan	nan	
